<?xml version="1.0" encoding="utf-8"?>
<!-- Generator: Adobe Illustrator 25.0.1, SVG Export Plug-In . SVG Version: 6.00 Build 0)  -->
<svg version="1.1" id="Layer_1" xmlns="http://www.w3.org/2000/svg" xmlns:xlink="http://www.w3.org/1999/xlink" x="0px" y="0px"
	 viewBox="0 0 1214.97 267.87" style="enable-background:new 0 0 1214.97 267.87;" xml:space="preserve">
<style type="text/css">
	.st0{fill:#FFFFFF;}
</style>
<g>
	<path class="st0" d="M185.21,56.69v125.57c0,58.11-32.88,85.61-90.14,85.61c-29.48,0-57.54-6.8-76.25-20.13l19.56-37.7
		c12.76,10.2,33.73,16.44,51.87,16.44c28.91,0,41.1-13.04,41.1-37.13v-5.1c-10.49,12.19-26.08,18.14-45.64,18.14
		c-40.82,0-75.4-28.91-75.4-74.27c0-45.07,34.58-73.98,75.4-73.98c21.26,0,37.7,6.8,48.19,21.26V56.69H185.21z M131.92,128.12
		c0-18.71-14.17-31.18-33.45-31.18c-19.28,0-33.73,12.47-33.73,31.18c0,18.71,14.46,31.46,33.73,31.46
		C117.74,159.59,131.92,146.83,131.92,128.12z"/>
	<path class="st0" d="M373.14,147.12H261.46c4.54,15.59,17.86,24.66,37.7,24.66c15.02,0,24.94-4.25,35.43-13.32l28.35,29.48
		c-14.74,16.44-36.28,24.94-65.48,24.94c-54.71,0-90.14-33.73-90.14-79.65c0-46.2,36-79.09,84.47-79.09
		c45.35,0,82.2,28.91,82.2,79.65C373.99,137.76,373.42,142.86,373.14,147.12z M260.61,118.77h62.93
		c-2.83-16.16-14.74-26.36-31.46-26.36C275.35,92.41,263.72,102.61,260.61,118.77z"/>
	<path class="st0" d="M386.46,133.23c0-46.2,36.57-79.09,86.74-79.09c50.74,0,86.74,32.88,86.74,79.09c0,46.49-36,79.65-86.74,79.65
		C423.03,212.88,386.46,179.71,386.46,133.23z M505.52,133.23c0-23.24-13.89-36.28-32.31-36.28c-18.14,0-32.31,13.04-32.31,36.28
		c0,23.53,14.17,36.85,32.31,36.85C491.63,170.08,505.52,156.75,505.52,133.23z"/>
	<path class="st0" d="M724.92,123.87v86.46h-9.35v-85.89c0-35.15-18.71-53.57-50.74-53.57c-36.85,0-59.24,23.81-59.24,60.09v79.37
		h-9.35V63.21h9.07v36c9.35-22.68,30.61-37.13,60.38-37.13C701.67,62.08,724.92,83.34,724.92,123.87z"/>
	<path class="st0" d="M911.43,0v210.33h-9.07v-40.25c-11.06,25.51-34.58,41.1-63.5,41.1c-40.82,0-72-30.61-72-74.55
		s31.18-74.55,72-74.55c28.35,0,52.16,15.31,63.21,40.54V0H911.43z M902.08,136.63c0-39.12-26.93-65.76-62.93-65.76
		c-36,0-62.93,26.65-62.93,65.76c0,39.12,26.93,66.05,62.93,66.05C875.15,202.67,902.08,175.74,902.08,136.63z"/>
	<path class="st0" d="M1092.85,138.04H963.87c0.57,38.27,28.06,64.63,65.48,64.63c19.28,0,37.42-7.09,48.75-21.83l5.95,6.24
		c-13.32,15.87-33.17,24.09-54.71,24.09c-43.37,0-74.55-30.9-74.55-74.55s29.48-74.55,69.17-74.55c39.12,0,68.88,30.33,68.88,73.42
		V138.04z M964.16,130.39h119.9c-2.27-34.58-26.93-59.81-60.09-59.81C990.52,70.58,966.14,95.81,964.16,130.39z"/>
	<path class="st0" d="M1202.55,62.08v9.35h-2.55c-34.3,0-54.42,22.96-54.42,60.66v78.24h-9.35V63.21h9.07v35.43
		C1153.79,75.4,1173.63,62.08,1202.55,62.08z"/>
</g>
</svg>
